inDegrees=no
num_controls=7
num_derivatives=13
num_iterations=109
num_multipliers=7
num_parameters=0
num_slacks=7
num_states=26
objective=0.553038
objective_accelerations=0.006861
objective_balance=0.003456
objective_effort=0.008639
objective_height=0.503402
objective_ligament=0.030681
solver_duration=1326.648788
status=Solve_Succeeded
success=true
DataType=double
version=3
OpenSimVersion=4.5
endheader
time	/jointset/ground_pelvis/pelvis_tilt/value	/jointset/ground_pelvis/pelvis_tx/value	/jointset/ground_pelvis/pelvis_ty/value	/jointset/hip_l/hip_flexion_l/value	/jointset/hip_l/hip_adduction_l/value	/jointset/hip_l/hip_rotation_l/value	/jointset/back/lumbar_extension/value	/jointset/patellofemoral_l/patellar_flexion_l/value	/jointset/knee_l/knee_flexion_l/value	/jointset/knee_l/knee_adduction_l/value	/jointset/knee_l/knee_rotation_l/value	/jointset/ankle_l/ankle_angle_l/value	/jointset/subtalar_l/subtalar_angle_l/value	/jointset/ground_pelvis/pelvis_tilt/speed	/jointset/ground_pelvis/pelvis_tx/speed	/jointset/ground_pelvis/pelvis_ty/speed	/jointset/hip_l/hip_flexion_l/speed	/jointset/hip_l/hip_adduction_l/speed	/jointset/hip_l/hip_rotation_l/speed	/jointset/back/lumbar_extension/speed	/jointset/patellofemoral_l/patellar_flexion_l/speed	/jointset/knee_l/knee_flexion_l/speed	/jointset/knee_l/knee_adduction_l/speed	/jointset/knee_l/knee_rotation_l/speed	/jointset/ankle_l/ankle_angle_l/speed	/jointset/subtalar_l/subtalar_angle_l/speed	/forceset/tau_hip_flexion_l	/forceset/tau_hip_adduction_l	/forceset/tau_hip_rotation_l	/forceset/tau_knee_flexion_l	/forceset/tau_ankle_angle_l	/forceset/tau_subtalar_angle_l	/forceset/tau_lumbar_extension	lambda_cid13_p0	lambda_cid13_p1	lambda_cid13_p2	lambda_cid13_p3	lambda_cid13_p4	lambda_cid13_p5	lambda_cid14_p0	/jointset/ground_pelvis/pelvis_tilt/accel	/jointset/ground_pelvis/pelvis_tx/accel	/jointset/ground_pelvis/pelvis_ty/accel	/jointset/hip_l/hip_flexion_l/accel	/jointset/hip_l/hip_adduction_l/accel	/jointset/hip_l/hip_rotation_l/accel	/jointset/back/lumbar_extension/accel	/jointset/patellofemoral_l/patellar_flexion_l/accel	/jointset/knee_l/knee_flexion_l/accel	/jointset/knee_l/knee_adduction_l/accel	/jointset/knee_l/knee_rotation_l/accel	/jointset/ankle_l/ankle_angle_l/accel	/jointset/subtalar_l/subtalar_angle_l/accel	gamma_cid13_p0	gamma_cid13_p1	gamma_cid13_p2	gamma_cid13_p3	gamma_cid13_p4	gamma_cid13_p5	gamma_cid14_p0
0	-0.02287245019345743	0.05000420342870746	0.9225839038627649	0.3085816938045678	-0.2705991730117756	-0.3132181198038371	-0.3879492264334186	0.2499269421184224	0.2499269421184919	-0.1220329937568528	-0.1745158272204905	-0.0008036623358878681	0.02659295644331863	0	0	0	0	0	0	0	0	0	0	0	0	0	-0.04549303830576744	0.08453648792666858	-0.01114447274738999	-0.1665384977158206	0.1696656081268709	-0.06917118434610246	0.1268527079411382	4.478431303191906	26.08841663291706	-0.9943394052646692	-5.673538232385552	-705.2152374500007	-8.901487874219537	-22.99801183010954	0.220968713140815	0.0935388466704265	0.05174997197410014	-0.4579680367164546	0.1233721860443902	-0.1116696168734391	-0.2646871666659915	-0.2038062371188011	-0.2038062371188021	0.1928921608889404	0.01190430863591955	0.08955099684302244	0.1627361850925948	-2.566123055994159e-09	-7.919369400621711e-09	4.612296169923807e-09	1.481157756635524e-09	-1.036022985093083e-08	-1.137681928279281e-08	-8.388707084123479e-10
0.01	-0.0228639177423226	0.05001091112007428	0.9225864949915319	0.3085588454530189	-0.2705932859908727	-0.313223671347261	-0.387963348816723	0.2499166113724036	0.2499166113725568	-0.1220239484963501	-0.1745151408490514	-0.0007969413463362493	0.02660161790263276	0.001475559727764252	0.00154587542158688	0.0005220038940671993	-0.004602829762999197	0.00114982957070904	-0.001121732942523857	-0.002936674934730312	-0.002101449194971935	-0.002101449194979057	0.001744049432690849	0.0001382147661505379	0.001562221527494211	0.001783274106946767	-0.02894690971823761	0.04397055525635662	-0.01298617386606542	-0.1968205151426108	0.2033596127960816	-0.04729775348708544	0.1164366465421476	16.34586144090612	15.32094049249715	-0.2029878799567924	-16.38735630539717	-705.5181038386999	-33.84303891264632	-22.99781783094913	0.07621017997818649	0.2157627522555737	0.0529902468878321	-0.4664144169104719	0.1066518717488642	-0.1141396481749409	-0.3249873956364586	-0.2186090888666634	-0.2186090888678353	0.155410578784864	0.01492200225758276	0.222260857914811	0.1937711080136026	-8.239412181586149e-10	-2.151705071123429e-09	1.169883641426868e-09	5.946544777731832e-10	-3.18343448575566e-09	-2.863316902113204e-09	-2.500802334032354e-10
0.02	-0.0228475575784208	0.0500392077381216	0.9225944190889908	0.308488974009638	-0.2705767279682799	-0.3132407831232643	-0.3880102038971012	0.2498842071686984	0.2498842071688863	-0.1219994128929781	-0.1745130439418872	-0.0007680575160090503	0.02662964171991269	0.001565542551356641	0.004317785336096601	0.001066593738375363	-0.009404618358644635	0.0021342003081418	-0.002312046494494096	-0.006546539419573632	-0.004414691517163763	-0.004414691517177987	0.003098068638274826	0.0002821071983618484	0.004432568143428218	0.003872471594512881	-0.01240078113157425	0.003404622585196492	-0.01482787498198622	-0.2271025325703174	0.2370536174647613	-0.02542432262918263	0.1060205851431278	28.2123549451766	4.554202216390062	0.5875905395837183	-27.11290069663986	-705.8441398047038	-58.78740080640046	-22.99723207414821	-0.05614666769146042	0.3387457452528111	0.05626716202218665	-0.4977598032450749	0.09028041938891397	-0.1253857387629263	-0.3993250766876362	-0.246164862562347	-0.2461648625623443	0.1148861154672545	0.01303984184748251	0.3511760145284605	0.2239208612153194	9.182406196769291e-10	3.615959258374853e-09	-2.27252888707007e-09	-2.918488010891576e-10	3.993360879419507e-09	5.650185478566403e-09	3.387102416058771e-10
0.03	-0.02283424653861294	0.05009863031455528	0.9226078391669339	0.3083706587249588	-0.2705507877013281	-0.3132701367280279	-0.3880949052490877	0.2498281184370335	0.2498281184376087	-0.1219623950101435	-0.1745096464897316	-0.0007068369494071744	0.02667940832296208	0.001165248085261874	0.007498993249345947	0.001615133813592737	-0.01424090973832579	0.003058961182808185	-0.003558488254817176	-0.01034596526144839	-0.006793190280949559	-0.006793190280954427	0.004318418484627413	0.0003921729060571913	0.007735847672903431	0.006058655290298394	-0.01793381976331382	0.04286370002880813	-0.01452257777772848	-0.2169045777551656	0.2347452531587222	-0.05755321088493048	0.1095298422962389	26.01970886133972	18.40060000439926	-1.058955608100387	-23.54167701650741	-705.7307140399488	-28.65046640077563	-22.99625127153437	-0.0216834693666294	0.2976477409616682	0.05380505212024518	-0.4739344475370333	0.09434037218668741	-0.1242450390579201	-0.3630864789981549	-0.2322127807116036	-0.2322127807111986	0.1275461158659491	0.009207951342995697	0.3085494375811895	0.212637734486614	3.868272045662236e-10	1.736575562429755e-09	-1.305641015344791e-09	1.281874967246411e-11	1.24972275340025e-09	2.909222772934549e-09	1.899849838278812e-10
0.04	-0.02282288097012041	0.05018783285543357	0.9226266761700005	0.3082045063983271	-0.270515446535342	-0.3133119490793475	-0.3882161678876255	0.2497485406388392	0.2497485406390318	-0.1219127862894285	-0.1745053047769173	-0.000614854484403123	0.02675037088510209	0.001176448287310757	0.01027377822501873	0.002149978763075106	-0.0189720268064788	0.004014380084618106	-0.004803795790778949	-0.01385879674548076	-0.009112504941700073	-0.009112504941695619	0.005616236196864223	0.0004709592581095596	0.01058494781931672	0.008111663415089683	-0.02346685839306697	0.08232277747225165	-0.01421728057612309	-0.2067066229386712	0.2324368888530189	-0.08968209914069449	0.1130390994507187	23.82515829200349	32.24948032112774	-2.708352279600398	-19.98397587018757	-705.6419589193455	1.487784186376012	-22.99488402491555	0.02615226593940242	0.25746115773526	0.05352813687507328	-0.476724940938762	0.09641202481739219	-0.1251588938912145	-0.3420062051181944	-0.2343280419548036	-0.2343280419548085	0.1303796886438267	0.006783970717940466	0.2603401379134989	0.1972857470153043	-1.914644631825496e-10	-3.004792268234555e-10	-2.478397333056491e-10	3.420465237253019e-10	-1.698460393056008e-09	-6.379075921919684e-11	2.605321609551183e-11
0.05	-0.02281022368545814	0.05030357574510541	0.9226508102614863	0.3079913522457051	-0.2704705612257701	-0.3133661202487247	-0.3883716243615023	0.2496459044455981	0.2496459044459639	-0.121850203298295	-0.1745002153546934	-0.0004957855042174009	0.02684134299669539	0.001334004196219747	0.01288931037102412	0.00267605163924839	-0.02365573578778667	0.004956819951217542	-0.006026871611572534	-0.01723266190613008	-0.0114152990597942	-0.01141529905979327	0.006887914463858834	0.0005490368677194661	0.01324352028139696	0.01008212607645495	-0.02239286026073831	0.06493518023337901	-0.01414431820414005	-0.2085660683887327	0.2293181077817293	-0.07408784258451614	0.1123951049296595	23.52495532124576	25.70993295989284	-1.871915297658481	-20.72001112248702	-705.640129089627	-12.56245448455973	-22.99313988184399	0.007406646578517567	0.2657759069484129	0.05202831492550667	-0.4637336679292497	0.09228078295234082	-0.1203469418771925	-0.3351012504479497	-0.2283399043841378	-0.2283399043851414	0.1236946808653138	0.008636379990280033	0.270816569146981	0.19683168873027	-7.51456820600272e-11	7.514826537726105e-10	-7.903667497187388e-10	3.180384005228539e-10	-6.400538266588014e-10	1.356530733824389e-09	7.883811843785067e-11
